# xmcd
#
# Track frame offsets:
#	150
#	8415
#	18143
#	28516
#	35986
#	44626
#	53716
#	61906
#	70966
#	82284
#	91404
#	101289
#
# Disc length: 1463 seconds
#
# Revision: 1
# Processed by: cddbd v1.5.2PL0 Copyright (c) Steve Scherf et al.
# Submitted via: audiograbber 1.83.01
#
DISCID=9505b50c
DTITLE=The Chuck Wagon Gang - God's Gentle People
DYEAR=1957
DGENRE=Gospel
TTITLE0=I'm Bound For The Land Of Canaan
TTITLE1=I Want To Walk Just As Close As I Can
TTITLE2=I Cannot Find The Way Alone
TTITLE3=I'll Sail Away Home Some Sweet Day
TTITLE4=I'd Rather Be An Old-Time Christian (Than Anything I Know)
TTITLE5=I Am Just A Pilgram
TTITLE6=Ride On, God's Careworn Children
TTITLE7=It's An unfriendly World
TTITLE8=God's Gentle People
TTITLE9=I Walk In The New Jerusalem Way
TTITLE10=The World' Greatest Story
TTITLE11=They're Having A Big Revival
EXTD=this is taken from my LP that i have made into a CD
EXTT0=
EXTT1=
EXTT2=
EXTT3=
EXTT4=
EXTT5=
EXTT6=
EXTT7=
EXTT8=
EXTT9=
EXTT10=
EXTT11=
PLAYORDER=
